<svg xmlns="http://www.w3.org/2000/svg" width="24" height="24" viewBox="0 0 24 24"><path fill="#28292B" fill-rule="evenodd" d="M12.00235,15.9734722 C16.4282004,15.9734722 20.0288594,19.5741394 20.0288594,24 L23.6647,24 C23.6647,17.5692665 18.4330687,12.3376232 12.00235,12.3376232 C5.57163131,12.3376232 0.34,17.5695092 0.34,24 L3.97584061,24 C3.97584061,19.5741394 7.57649958,15.9734722 12.00235,15.9734722 Z M12.0239442,2.89436385 L10.1850363,4.73327605 L8.83139231,6.08692312 L8.7979091,6.05343982 L5.66819885,2.92372239 L5.66819885,8.96575848 C7.32634598,10.0430471 9.2724973,10.7122277 11.3649557,10.8255371 C11.5767735,10.8340292 11.7883486,10.8437345 12.0040484,10.8437345 C12.0132684,10.8437345 12.0220032,10.8430066 12.0312232,10.8430066 C12.2350341,10.842764 12.4354481,10.8340292 12.6361048,10.8260223 C12.9097937,10.8112218 13.1808137,10.785988 13.4491647,10.7525047 C13.8390743,10.7039782 14.221705,10.6326442 14.5987551,10.5465096 C15.947789,10.2381236 17.2097181,9.69826619 18.3369864,8.96600111 L18.3369864,2.9081939 L15.187623,6.05756458 L12.0239442,2.89436385 Z M12.00235,1.29856948 C12.3609601,1.29856948 12.6516332,1.00789567 12.6516332,0.649284739 C12.6516332,0.290673811 12.3609601,0 12.00235,0 C11.6437399,0 11.3530668,0.290673811 11.3530668,0.649284739 C11.3533094,1.0081383 11.6437399,1.29856948 12.00235,1.29856948 Z M18.3367438,2.35426376 C18.695333,2.35426376 18.986027,2.06356908 18.986027,1.70497902 C18.986027,1.34638896 18.695333,1.05569428 18.3367438,1.05569428 C17.9781545,1.05569428 17.6874605,1.34638896 17.6874605,1.70497902 C17.6874605,2.06356908 17.9781545,2.35426376 18.3367438,2.35426376 Z M6.31723947,1.70497902 C6.31723947,1.34636809 6.02656632,1.05569428 5.66795622,1.05569428 C5.30934611,1.05569428 5.01867297,1.34636809 5.01867297,1.70497902 C5.01867297,2.06358995 5.30934611,2.35426376 5.66795622,2.35426376 C6.02656632,2.35426376 6.31723947,2.06358995 6.31723947,1.70497902 Z"/></svg>
