<svg xmlns="http://www.w3.org/2000/svg" width="20" height="20" viewBox="0 0 20 20"><path fill="#28292B" d="M19,20 C19.5522847,20 20,19.5522847 20,19 C20,18.4477153 19.5522847,18 19,18 L19,13 C19,11.8954305 18.1045695,11 17,11 L14,11 L14,9 C14,7.9456382 13.1841222,7.08183488 12.1492623,7.00548574 L12,7 L8,7 C6.8954305,7 6,7.8954305 6,9 L6,13 L3,13 C1.9456382,13 1.08183488,13.8158778 1.00548574,14.8507377 L1,15 L1,18 C0.44771525,18 0,18.4477153 0,19 C0,19.5522847 0.44771525,20 1,20 L19,20 Z M12,18 L8,18 L8,9 L12,9 L12,18 Z M17,18 L14,18 L14,13 L17,13 L17,18 Z M6,18 L3,18 L3,15 L6,15 L6,18 Z M10,-3.55271368e-15 L10.8816779,1.78647451 L12.8531695,2.07294902 L11.4265848,3.46352549 L11.7633558,5.42705098 L10,4.5 L8.23664424,5.42705098 L8.57341523,3.46352549 L7.14683045,2.07294902 L9.11832212,1.78647451 L10,-3.55271368e-15 Z"/></svg>