<svg xmlns="http://www.w3.org/2000/svg" width="20" height="20" viewBox="0 0 20 20"><path fill="#28292B" d="M14,0 C14.5522847,0 15,0.44771525 15,1 C15,1.55228475 14.5522847,2 14,2 L11.5,2 L11.5000759,3.05821203 C13.0992929,3.24564435 14.5628056,3.87700794 15.7640654,4.82575424 L15.7928932,4.79289322 L16.2928932,4.29289322 C16.6834175,3.90236893 17.3165825,3.90236893 17.7071068,4.29289322 C18.0976311,4.68341751 18.0976311,5.31658249 17.7071068,5.70710678 L17.2071068,6.20710678 L17.1742458,6.23593457 C18.3175883,7.68358343 19,9.51209882 19,11.5 C19,16.1944204 15.1944204,20 10.5,20 C5.80557963,20 2,16.1944204 2,11.5 C2,9.51209882 2.68241166,7.68358343 3.82575424,6.23593457 L3.79289322,6.20710678 L3.29289322,5.70710678 C2.90236893,5.31658249 2.90236893,4.68341751 3.29289322,4.29289322 C3.68341751,3.90236893 4.31658249,3.90236893 4.70710678,4.29289322 L5.20710678,4.79289322 C5.21785806,4.80364449 5.22831335,4.81457967 5.23847265,4.82568863 C6.43744302,3.87681157 7.90131291,3.24538302 9.50091712,3.05809571 L9.5,2 L7,2 C6.44771525,2 6,1.55228475 6,1 C6,0.44771525 6.44771525,0 7,0 L14,0 Z M10.5,5 C6.91014913,5 4,7.91014913 4,11.5 C4,15.0898509 6.91014913,18 10.5,18 C14.0898509,18 17,15.0898509 17,11.5 C17,7.91014913 14.0898509,5 10.5,5 Z M10.5,15 C11.0522847,15 11.5,15.4477153 11.5,16 C11.5,16.5522847 11.0522847,17 10.5,17 C9.94771525,17 9.5,16.5522847 9.5,16 C9.5,15.4477153 9.94771525,15 10.5,15 Z M10.6353844,6.53830481 C12.2377226,6.570553 13.5577275,7.84773342 13.6408408,9.44811636 C13.7133361,10.8452194 12.8462437,12.0608363 11.6076252,12.5040455 L11.572,12.5146701 L11.572506,12.9723436 C11.572506,13.4851794 11.1864658,13.9078508 10.6891271,13.9656159 L10.572506,13.9723436 C10.0202213,13.9723436 9.57250602,13.5246283 9.57250602,12.9723436 L9.57250602,11.6827205 C9.57250602,11.1304357 10.0202213,10.6827205 10.572506,10.6827205 C11.1858442,10.6827205 11.675523,10.168355 11.6435302,9.55179988 C11.6148377,8.9993138 11.149483,8.54905641 10.5950903,8.53789886 C10.0491135,8.52688292 9.58476351,8.9264074 9.51041328,9.45916534 C9.50350535,9.50872331 9.5,9.55913021 9.5,9.61016765 C9.5,10.1624524 9.05228475,10.6101677 8.5,10.6101677 C7.94771525,10.6101677 7.5,10.1624524 7.5,9.61016765 C7.5,9.4666403 7.50992097,9.32397686 7.52958702,9.18289143 C7.74345742,7.65039877 9.07264295,6.50677403 10.6353844,6.53830481 Z"/></svg>