<svg xmlns="http://www.w3.org/2000/svg" width="20" height="20" viewBox="0 0 20 20"><path fill="#28292B" d="M10,0 C12.4852814,0 14.5,2.01471863 14.5,4.5 L14.4991877,5.063 L18.0647106,5.06329114 C18.5910661,5.06329114 19.0273166,5.47131167 19.062477,5.99649152 L19.9285787,18.9332004 C19.9654711,19.4842516 19.548663,19.960874 18.9976119,19.9977664 L18.9642307,19.9994414 L1.06918774,20 C0.516902992,20 0.0691877414,19.5522847 0.0691877414,19 C0.0691877414,18.9777148 0.069932687,18.9554358 0.0714213302,18.9332004 L0.937523025,5.99649152 C0.972683371,5.47131167 1.40893392,5.06329114 1.93528944,5.06329114 L5.49918774,5.063 L5.5,4.5 C5.5,2.01471863 7.51471863,0 10,0 Z M17.129,7.06329114 L14.4991877,7.063 L14.5,8.35443038 C14.5,8.90671513 14.0522847,9.35443038 13.5,9.35443038 C12.9477153,9.35443038 12.5,8.90671513 12.5,8.35443038 L12.4991877,7.063 L7.49918774,7.063 L7.5,8.35443038 C7.5,8.90671513 7.05228475,9.35443038 6.5,9.35443038 C5.94771525,9.35443038 5.5,8.90671513 5.5,8.35443038 L5.49918774,7.063 L2.87,7.06329114 L2.138,17.9992911 L17.861,17.9992911 L17.129,7.06329114 Z M10.0140708,11.2683616 L12.0524615,13.3325548 L14.0817844,11.2775443 L14.0817844,15.2298773 C13.3554181,15.7076909 12.5422819,16.0599558 11.6730188,16.2611822 C11.4300629,16.3173863 11.1835111,16.3639327 10.932269,16.395597 C10.7593545,16.4174453 10.5847201,16.4339108 10.408366,16.4435684 C10.279071,16.4489513 10.1499323,16.4546508 10.0186047,16.4548092 C10.0126637,16.4548092 10.0070354,16.4552841 10.0010944,16.4552841 C9.8621061,16.4552841 9.72577563,16.4489513 9.58928882,16.44341 C8.24099295,16.369474 6.98697148,15.9328238 5.9185283,15.2298773 L5.9185283,11.2873602 L7.93518744,13.3295467 L7.95676267,13.351395 L8.82899628,12.4681205 L10.0140708,11.2683616 Z M10,2 C8.61928813,2 7.5,3.11928813 7.5,4.5 L7.49918774,5.063 L12.4991877,5.063 L12.5,4.5 C12.5,3.11928813 11.3807119,2 10,2 Z"/></svg>