<?xml version="1.0" standalone="no"?>
<!DOCTYPE svg PUBLIC "-//W3C//DTD SVG 20010904//EN"
 "http://www.w3.org/TR/2001/REC-SVG-20010904/DTD/svg10.dtd">
<svg version="1.0" xmlns="http://www.w3.org/2000/svg"
 width="700.000000pt" height="700.000000pt" viewBox="0 0 700.000000 700.000000"
 preserveAspectRatio="xMidYMid meet">
<metadata>
Created by potrace 1.14, written by Peter Selinger 2001-2017
</metadata>
<g transform="translate(0.000000,700.000000) scale(0.100000,-0.100000)"
fill="#000000" stroke="none">
<path d="M3336 6988 c-89 -32 -141 -134 -117 -226 38 -139 202 -184 311 -85
149 134 -4 380 -194 311z"/>
<path d="M1480 6674 c-74 -32 -112 -90 -112 -170 0 -206 277 -263 359 -74 29
67 9 165 -43 211 -56 49 -137 62 -204 33z"/>
<path d="M5163 6669 c-78 -38 -121 -140 -93 -223 49 -149 243 -177 335 -47 26
37 30 51 29 105 0 53 -5 70 -30 104 -54 78 -156 103 -241 61z"/>
<path d="M2944 5690 c-252 -253 -462 -460 -465 -460 -3 0 -211 205 -461 455
-251 250 -458 455 -460 455 -2 0 -4 -395 -3 -877 l0 -877 75 -48 c91 -59 331
-181 460 -236 168 -71 456 -163 585 -186 16 -3 51 -10 79 -15 117 -24 215 -38
316 -46 41 -4 95 -8 120 -11 72 -7 348 -7 435 1 180 14 411 48 515 75 19 5 67
16 105 25 279 68 610 205 878 363 l127 75 0 886 0 885 -454 -454 c-250 -250
-458 -456 -463 -457 -4 -2 -213 202 -463 452 -250 250 -458 455 -461 455 -3 0
-212 -207 -465 -460z"/>
<path d="M3368 3405 c-1 -1 -66 -6 -143 -10 -77 -3 -151 -8 -165 -10 -14 -1
-46 -5 -70 -9 -25 -3 -67 -8 -95 -11 -27 -3 -57 -8 -65 -10 -8 -2 -31 -7 -50
-10 -19 -3 -42 -8 -50 -10 -8 -2 -30 -7 -49 -10 -139 -24 -466 -129 -641 -208
-394 -175 -719 -398 -1026 -702 -172 -171 -227 -233 -346 -395 -209 -284 -325
-502 -474 -885 -4 -11 -8 -22 -9 -25 -1 -3 -15 -50 -33 -105 -44 -142 -87
-329 -111 -480 -25 -163 -30 -216 -37 -387 l-6 -138 531 0 531 0 0 43 c1 98
22 308 35 357 2 8 7 31 10 50 15 91 78 315 105 375 5 11 21 49 36 85 140 343
390 670 714 934 13 10 72 52 132 93 224 154 539 292 783 344 33 7 65 13 70 15
137 29 248 39 450 39 166 0 275 -6 365 -20 156 -25 433 -104 550 -157 239
-109 408 -212 578 -352 170 -141 362 -352 457 -505 6 -9 27 -41 46 -71 204
-313 343 -774 350 -1163 l2 -67 530 2 531 3 -1 35 c-2 78 -15 305 -18 310 -1
3 -6 38 -9 79 -4 41 -9 77 -10 80 -2 3 -7 29 -10 56 -4 28 -9 57 -11 65 -2 8
-7 31 -10 50 -7 39 -51 218 -65 265 -14 45 -68 205 -84 250 -32 90 -112 267
-169 375 -343 654 -878 1172 -1537 1492 -246 119 -567 230 -760 263 -19 3 -51
10 -70 15 -19 4 -60 12 -90 16 -30 4 -57 8 -60 9 -3 1 -34 5 -70 9 -36 4 -78
10 -95 12 -16 2 -100 6 -185 10 -85 3 -160 7 -167 9 -6 2 -13 2 -15 0z"/>
</g>
</svg>
