<svg xmlns="http://www.w3.org/2000/svg" xmlns:xlink="http://www.w3.org/1999/xlink" width="80" height="80" viewBox="0 0 80 80"><defs><rect id="a" width="80" height="80" x="0" y="0" rx="20"/></defs><g fill="none" fill-rule="evenodd"><mask id="b" fill="#fff"><use xlink:href="#a"/></mask><use xlink:href="#a" fill="#FFF" fill-opacity="0"/><g fill="#2D2E30" fill-rule="nonzero" mask="url(#b)"><g transform="translate(5.95 17)"><path d="M60.7153658,20.2128811 C58.4472062,20.2128811 56.6019168,22.0581839 56.6019168,24.3263601 L56.6019168,26.0387715 L53.5450282,25.0609538 C53.337763,22.3606074 51.0106777,20.2130178 48.3072064,20.2130178 L46.8588108,20.2130178 L46.0374062,17.6966958 L51.3230794,17.6966958 C51.8895041,17.6966958 52.3484681,17.2375918 52.3484681,16.6712998 L52.3484681,10.6485333 C52.3484681,10.0822412 51.8895041,9.62313721 51.3230794,9.62313721 L42.0415214,9.62313721 C41.4750967,9.62313721 41.0161328,10.0822412 41.0161328,10.6485333 C41.0161328,11.2148254 41.4750967,11.6739294 42.0415214,11.6739294 L50.2976908,11.6739294 L50.2976908,15.6459037 L45.3312552,15.6459037 C44.6592839,14.2193726 43.2784272,13.2429221 41.6795045,13.1060659 C41.6503835,13.103605 41.6212625,13.1023745 41.5920047,13.1023745 L40.3507376,13.1023745 L40.3507376,11.6739294 L43.6639733,11.6739294 C44.230398,11.6739294 44.6893619,11.2148254 44.6893619,10.6485333 C44.6893619,10.0822412 44.230398,9.62313721 43.6639733,9.62313721 L40.3508743,9.62313721 L40.3508743,7.30998035 C40.3508743,5.59428762 38.9551153,4.19851846 37.2394351,4.19851846 L35.9027385,4.19851846 L35.9027385,2.05079218 L38.4947842,2.05079218 C39.0612089,2.05079218 39.5201728,1.59168817 39.5201728,1.02539609 C39.5201728,0.459104008 39.0612089,0 38.4947842,0 L31.2600522,0 C30.6936276,0 30.2346636,0.459104008 30.2346636,1.02539609 C30.2346636,1.59168817 30.6936276,2.05079218 31.2600522,2.05079218 L33.8519612,2.05079218 L33.8519612,4.19838174 L32.5154013,4.19838174 C30.7997211,4.19838174 29.4039621,5.5941509 29.4039621,7.30984363 L29.4039621,9.62300049 L18.7783383,9.62300049 C18.2119136,9.62300049 17.7529497,10.0821045 17.7529497,10.6483966 L17.7529497,16.671163 C17.7529497,17.2374551 18.2119136,17.6965591 18.7783383,17.6965591 L24.0618241,17.6965591 L23.2421968,20.2128811 L21.4474933,20.2128811 C18.702733,20.2128811 16.3525423,22.426096 16.2026988,25.1740208 L13.499501,26.0387715 L13.499501,24.3263601 C13.499501,22.0581839 11.6542116,20.2128811 9.38605198,20.2128811 L4.16422624,20.2128811 C1.89606661,20.2128811 0.0507772446,22.0581839 0.0507772446,24.3263601 L0,32 C0,33.3257688 2.05077724,33.3257688 2.05077724,32 L2.10155449,24.3263601 C2.10155449,23.1889907 3.02686518,22.2636733 4.16422624,22.2636733 L9.38605198,22.2636733 C10.523413,22.2636733 11.4487237,23.1889907 11.4487237,24.3263601 L11.4487237,27.4215523 C11.4484503,27.4354977 11.4484503,27.4495798 11.4487237,27.4635252 L11.4487237,34.9513776 C8.41562419,35.5500722 4.16655046,36.3828306 2.10155449,36.7872468 L2.10155449,32.23066 C2.10155449,30.9048912 0.0507772446,30.9048912 0.0507772446,32.23066 L0.0507772446,41.141352 C0.0507772446,43.6111894 2.05493349,45.6205556 4.51860055,45.6205556 L65.5829539,45.6205556 C68.046621,45.6205556 70.0507772,43.6111894 70.0507772,41.141352 L70.0507772,24.3263601 C70.0507772,22.0581839 68.2053512,20.2128811 65.9371915,20.2128811 L60.7153658,20.2128811 Z M60.7153658,22.2636733 L65.9371915,22.2636733 C67.0745526,22.2636733 67.9998633,23.1889907 67.9998633,24.3263601 L67.9998633,36.7860163 L58.652694,34.9474128 L58.652694,24.3263601 C58.652694,23.1889907 59.577868,22.2636733 60.7153658,22.2636733 Z M56.6019168,34.5440903 L56.2344175,34.4717657 C54.5840887,34.13776 52.7684672,34.0766464 50.9427286,34.2433074 L53.287724,27.1317071 L56.6019168,28.1918299 L56.6019168,34.5440903 Z M50.886674,23.5776842 C51.4994463,24.4183723 51.6682936,25.4691982 51.351927,26.4534417 L48.6771666,34.5650084 C46.2076207,35.0402453 43.8388363,35.905953 41.9662032,37.0472872 L46.855803,22.2636733 L48.3072064,22.2636733 C49.3377904,22.2636733 50.2778666,22.7426016 50.886674,23.5776842 Z M32.2020426,41.310474 C32.198898,41.3004935 32.1954801,41.290513 32.1920621,41.2808059 L25.4388527,22.2636733 L44.6957877,22.2636733 L38.429296,41.2103953 C38.4260148,41.2205126 38.4228703,41.2306298 38.4198625,41.2408838 C37.4878526,44.2856266 33.1927047,44.3474238 32.2020426,41.310474 Z M43.5885047,16.8032341 L44.7015299,20.2127444 L25.3989309,20.2127444 L26.5107256,16.7992692 C26.8063109,15.8921355 27.6065242,15.2496906 28.5558974,15.15303 L41.5444267,15.15303 C42.4920225,15.2498273 43.2916889,15.8937761 43.5885047,16.8032341 L43.5885047,16.8032341 Z M31.4546026,7.30984363 C31.4546026,6.7249577 31.9303829,6.24917392 32.5152646,6.24917392 L37.2394351,6.24917392 C37.82418,6.24917392 38.3000971,6.7249577 38.3000971,7.30984363 L38.3000971,13.1022378 L31.4547393,13.1022378 L31.4547393,7.30984363 L31.4546026,7.30984363 Z M19.8037269,11.6737927 L29.4039621,11.6737927 L29.4039621,13.1022378 L28.5085928,13.1022378 C26.8767209,13.1993086 25.4467823,14.1965405 24.7661977,15.645767 L19.8037269,15.645767 L19.8037269,11.6737927 Z M18.8680256,23.5776842 C19.4768331,22.7426016 20.4170461,22.2636733 21.4474933,22.2636733 L23.2625678,22.2636733 L28.459921,36.8994935 C27.2129117,36.1472629 25.7362154,35.5082361 24.1094021,35.0312218 C23.0825096,34.7301655 22.0349726,34.5017073 20.9849746,34.3469408 L18.4050969,26.4608246 C18.1138865,25.5549213 18.3107611,24.3422195 18.8680256,23.5776842 Z M13.499501,28.1919666 L16.4997881,27.2323326 L18.7560532,34.1292834 C17.0741424,34.0488923 15.4197121,34.1615492 13.8695979,34.4713555 C13.7543442,34.4943244 13.6307507,34.5190706 13.499501,34.545184 L13.499501,28.1919666 Z M2.10155449,41.141352 L2.10155449,38.877004 C4.52885444,38.4017671 11.6155203,37.0133808 14.271687,36.4823623 C19.1394118,35.5093298 26.5741629,36.786153 29.8097426,40.7005684 C29.8097426,40.7005684 30.4699561,42.7460285 31.1073377,43.5699001 L4.51860055,43.5699001 C3.18586878,43.5697634 2.10155449,42.4803826 2.10155449,41.141352 L2.10155449,41.141352 Z M67.9998633,41.141352 C67.9998633,42.4803826 66.915549,43.5697634 65.5828172,43.5697634 L39.4832588,43.5697634 C40.1549567,42.7123955 40.7945258,40.685666 40.7945258,40.685666 C43.9829375,37.0472872 51.1834899,35.5420058 55.8328753,36.4829092 C59.8884924,37.2806674 63.9441095,38.0784255 67.9998633,38.876047 L67.9998633,41.141352 L67.9998633,41.141352 Z"/><path d="M41.1957945 24.8311284C41.0041152 24.5563222 40.6902096 24.392669 40.3551126 24.392669L29.7463052 24.392669C28.9460919 24.5176306 28.6253503 24.9772815 28.7838071 25.771485L34.0882108 40.2168549C34.4104562 41.0943205 35.6909615 41.0943205 36.013207 40.2168549L41.3176107 25.771485C41.4331378 25.4570302 41.3877473 25.1059345 41.1957945 24.8311284ZM35.0507089 36.8886926 31.2152086 26.4434612 38.8860725 26.4434612 35.0507089 36.8886926ZM22.8391507 39.4761088 12.7069439 39.4761088C11.3491927 39.5231403 11.3502864 41.4804163 12.7069439 41.5269009L22.839014 41.5269009C24.1967652 41.4798694 24.1958082 39.5227301 22.8391507 39.4761088ZM57.3944738 39.4761088 47.2624038 39.4761088C46.6959791 39.4761088 46.2370152 39.9352128 46.2370152 40.5015048 46.2370152 41.0677969 46.6959791 41.5269009 47.2624038 41.5269009L57.3944738 41.5269009C58.7489438 41.4813733 58.7540024 39.5236871 57.3944738 39.4761088Z"/></g></g></g></svg>