<svg xmlns="http://www.w3.org/2000/svg" width="24" height="24" viewBox="0 0 24 24"><defs><linearGradient id="a" x1="0%" x2="100%" y1="50%" y2="50%"><stop offset="0%" stop-color="#B57932"/><stop offset="18.643%" stop-color="#DC9A3E"/><stop offset="37.629%" stop-color="#F3C548"/><stop offset="100%" stop-color="#F6D318"/></linearGradient></defs><g fill="none" fill-rule="evenodd"><path fill="url(#a)" d="M19.4169866,20.1234141 L20.1238869,20.8319884 C17.9866277,22.7989094 15.1335787,24 12,24 C8.8664213,24 6.01337232,22.7989094 3.87611313,20.8319884 L4.58301338,20.1234141 C6.53883726,21.9101586 9.14214558,23 12,23 C14.8578544,23 17.4611627,21.9101586 19.4169866,20.1234141 Z M12,3 C16.9705627,3 21,7.02943725 21,12 C21,16.9705627 16.9705627,21 12,21 C7.02943725,21 3,16.9705627 3,12 C3,7.02943725 7.02943725,3 12,3 Z M3.16801163,3.87611313 L3.87658588,4.58301338 C2.08984141,6.53883726 1,9.14214558 1,12 C1,14.8578544 2.08984141,17.4611627 3.87658588,19.4169866 L3.16801163,20.1238869 C1.20109056,17.9866277 0,15.1335787 0,12 C0,8.8664213 1.20109056,6.01337232 3.16801163,3.87611313 Z M20.8319884,3.87611313 C22.7989094,6.01337232 24,8.8664213 24,12 C24,15.1335787 22.7989094,17.9866277 20.8319884,20.1238869 L20.1234141,19.4169866 C21.9101586,17.4611627 23,14.8578544 23,12 C23,9.14214558 21.9101586,6.53883726 20.1234141,4.58301338 L20.8319884,3.87611313 Z M12,0 C15.1335787,0 17.9866277,1.20109056 20.1238869,3.16801163 L19.4169866,3.87658588 C17.4611627,2.08984141 14.8578544,1 12,1 C9.14214558,1 6.53883726,2.08984141 4.58301338,3.87658588 L3.87611313,3.16801163 C6.01337232,1.20109056 8.8664213,0 12,0 Z"/><path fill="#28292B" fill-rule="nonzero" d="M12.4033289,9.37124402 L10.823438,10.9511349 L9.66045987,12.1141131 L9.63169289,12.0853461 L6.94281404,9.39646724 L6.94281404,14.587448 C8.36740495,15.5129944 10.0394336,16.0879171 11.8371614,16.1852662 C12.0191438,16.1925622 12.2009178,16.2009004 12.3862355,16.2009004 C12.3941568,16.2009004 12.4016613,16.200275 12.4095826,16.200275 C12.584686,16.2000666 12.756871,16.1925622 12.9292644,16.1854746 C13.1644032,16.1727588 13.397249,16.1510793 13.6278017,16.1223124 C13.9627911,16.0806211 14.2915268,16.0193349 14.615468,15.9453329 C15.7744855,15.6803848 16.8586671,15.2165694 17.8271555,14.587448 L17.8271555,9.38354294 L15.1213917,12.0893068 L12.4035374,9.37145247 L12.4033289,9.37124402 Z M12.3847763,8.00043486 C12.6928748,8.00043486 12.9426056,7.75070412 12.9426056,7.44260559 C12.9426056,7.13450705 12.6928748,6.88477631 12.3847763,6.88477631 C12.0766778,6.88477631 11.826947,7.13450705 11.826947,7.44260559 C11.826947,7.75070412 12.0766778,8.00043486 12.3847763,8.00043486 Z M17.826947,8.90742857 C18.1350276,8.90742857 18.3847763,8.6576799 18.3847763,8.3495993 C18.3847763,8.0415187 18.1350276,7.79177002 17.826947,7.79177002 C17.5188664,7.79177002 17.2691178,8.0415187 17.2691178,8.3495993 C17.2691178,8.6576799 17.5188664,8.90742857 17.826947,8.90742857 Z M7.50043486,8.3495993 C7.50043486,8.04150077 7.25070412,7.79177002 6.94260559,7.79177002 C6.63450705,7.79177002 6.38477631,8.04150077 6.38477631,8.3495993 C6.38477631,8.65769783 6.63450705,8.90742857 6.94260559,8.90742857 C7.25070412,8.90742857 7.50043486,8.65769783 7.50043486,8.3495993 Z"/></g></svg>