<svg xmlns="http://www.w3.org/2000/svg" width="24" height="24" viewBox="0 0 24 24"><defs><linearGradient id="a" x1="0%" x2="100%" y1="50%" y2="50%"><stop offset="0%" stop-color="#B57932"/><stop offset="18.643%" stop-color="#DC9A3E"/><stop offset="37.629%" stop-color="#F3C548"/><stop offset="100%" stop-color="#F6D318"/></linearGradient></defs><g fill="url(#a)" fill-rule="evenodd"><path fill-rule="nonzero" d="M12,0 C18.627417,0 24,5.372583 24,12 C24,18.627417 18.627417,24 12,24 C5.372583,24 0,18.627417 0,12 C0,5.372583 5.372583,0 12,0 Z M2.01233508,12.5010164 L1.01120686,12.5010164 C1.26568609,18.177867 5.82300188,22.7348643 11.499984,22.9888379 L11.499984,21.9877141 C6.37540202,21.735339 2.26521099,17.6254642 2.01233508,12.5010164 Z M22.9887931,12.5010164 L21.9876649,12.5010164 C21.7348054,17.6251316 17.6251316,21.7348054 12.5010164,21.9876649 L12.5010164,22.9887931 C18.0796625,22.7387162 22.5768651,18.3333855 22.9718107,12.7936145 L22.9887931,12.5010164 Z M12,3 C7.02943725,3 3,7.02943725 3,12 C3,16.9705627 7.02943725,21 12,21 C16.9705627,21 21,16.9705627 21,12 C21,7.02943725 16.9705627,3 12,3 Z M1.01116205,11.499984 L2.01228588,11.499984 C2.26467737,6.37506937 6.37506937,2.26467737 11.499984,2.01228588 L11.499984,1.01116205 C5.82266839,1.26515067 1.26515067,5.82266839 1.01116205,11.499984 Z M12.5010164,1.01120686 L12.5010164,2.01233508 C17.6254642,2.26521099 21.735339,6.37540202 21.9877141,11.499984 L22.9888379,11.499984 C22.7392431,5.92088088 18.3337257,1.42316775 12.7936316,1.02819051 L12.5010164,1.01120686 Z"/><polygon points="7 17 9.5 17 9.5 11.5 12 15 14.5 11.5 14.5 17 17 17 17 7 14.5 7 12 10.5 9.5 7 7 7"/></g></svg>