<svg xmlns="http://www.w3.org/2000/svg" xmlns:xlink="http://www.w3.org/1999/xlink" width="80" height="80" viewBox="0 0 80 80"><defs><rect id="a" width="80" height="80" x="0" y="0" rx="20"/></defs><g fill="none" fill-rule="evenodd"><mask id="b" fill="#fff"><use xlink:href="#a"/></mask><use xlink:href="#a" fill="#FFF" fill-opacity="0"/><g stroke="#2D2E30" stroke-linecap="round" stroke-linejoin="round" stroke-width="2" mask="url(#b)"><g transform="matrix(1 0 0 -1 8.948 81.633)"><path d="M4.11779102 23.4280977 7.40806445 20.1378242C9.12894336 18.4169453 10.0956816 16.0830195 10.0956816 13.6492891L10.0956816.000109375M57.9859082 23.4280977 54.6956348 20.1378242C52.9747559 18.4169453 52.0080176 16.0830195 52.0080176 13.6492891L52.0080176.000109375"/><polygon points="24.411 8.371 16.754 8.371 16.754 14.933 24.411 14.933"/><polygon points="37.693 8.371 45.349 8.371 45.349 14.933 37.693 14.933"/><path d="M25.0362109,31.9010918 L25.0362109,27.6397051 L14.21875,27.6397051 C6.36589844,27.6397051 0,21.2736699 0,13.4209551 L0,9.5703125e-05 L31.0518359,9.5703125e-05 L62.1036719,9.5703125e-05 L62.1036719,13.4209551 C62.1036719,21.2736699 55.7377734,27.6397051 47.8849219,27.6397051 L37.0674609,27.6397051 L37.0674609,31.9010918"/><path d="M31.0518496,30.254752 L31.0518496,30.254752 L31.0518496,30.254752 C21.9647012,31.4999863 15.1924746,39.2634238 15.1924746,48.4356113 L15.1924746,51.406373 C15.1924746,60.1652598 22.2929629,67.2656113 31.0518496,67.2656113 L31.0518496,67.2656113 C39.8107363,67.2656113 46.9112246,60.1652598 46.9112246,51.406373 L46.9112246,48.4356113 C46.9112246,39.2634238 40.138998,31.4999863 31.0518496,30.254752 Z"/><line x1="15.213" x2="46.89" y1="52.988" y2="52.988"/><path d="M15.2943437,46.5009453 C24.0040117,37.7912773 38.0995781,37.7912773 46.8093828,46.5009453"/><line x1="28.805" x2="20.019" y1="52.557" y2="43.771"/><line x1="39.684" x2="27.517" y1="52.557" y2="40.39"/><line x1="31.483" x2="31.483" y1="5.491"/><line x1="31.483" x2="31.483" y1="30.255" y2="17.796"/><line x1="25.036" x2="31.04" y1="27.64" y2="21.636"/><line x1="37.067" x2="31.052" y1="27.64" y2="21.624"/></g></g></g></svg>