<svg xmlns="http://www.w3.org/2000/svg" width="16" height="16" viewBox="0 0 16 16"><path fill="#28292B" d="M8,0 C12.418278,0 16,3.581722 16,8 C16,12.418278 12.418278,16 8,16 C3.581722,16 0,12.418278 0,8 C0,3.581722 3.581722,0 8,0 Z M8,2 C4.6862915,2 2,4.6862915 2,8 C2,11.3137085 4.6862915,14 8,14 C11.3137085,14 14,11.3137085 14,8 C14,4.6862915 11.3137085,2 8,2 Z M8,4 C8.55228475,4 9,4.44771525 9,5 L9,7.585 L11.7071068,10.2928932 C12.0675907,10.6533772 12.0953203,11.2206082 11.7902954,11.6128994 L11.7071068,11.7071068 C11.3165825,12.0976311 10.6834175,12.0976311 10.2928932,11.7071068 L7.29289322,8.70710678 C7.10535684,8.5195704 7,8.26521649 7,8 L7,5 C7,4.44771525 7.44771525,4 8,4 Z"/></svg>
