<svg xmlns="http://www.w3.org/2000/svg" width="16" height="16" viewBox="0 0 16 16"><path fill="#28292B" fill-rule="evenodd" d="M13.6568542,2.34314575 C14.0473785,2.73367004 14.0473785,3.36683502 13.6568542,3.75735931 L9.41492067,7.99929289 L13.6568542,12.2426407 C14.0473785,12.633165 14.0473785,13.26633 13.6568542,13.6568542 C13.26633,14.0473785 12.633165,14.0473785 12.2426407,13.6568542 L8.00070711,9.41350646 L3.75735931,13.6568542 C3.36683502,14.0473785 2.73367004,14.0473785 2.34314575,13.6568542 C1.95262146,13.26633 1.95262146,12.633165 2.34314575,12.2426407 L6.58649354,7.99929289 L2.34314575,3.75735931 C1.95262146,3.36683502 1.95262146,2.73367004 2.34314575,2.34314575 C2.73367004,1.95262146 3.36683502,1.95262146 3.75735931,2.34314575 L8.00070711,6.58507933 L12.2426407,2.34314575 C12.633165,1.95262146 13.26633,1.95262146 13.6568542,2.34314575 Z"/></svg>