<svg xmlns="http://www.w3.org/2000/svg" width="16" height="16" viewBox="0 0 16 16"><path fill="#28292B" d="M9,7 C12.3137085,7 15,9.6862915 15,13 L15,15 L1,15 L1,13 C1,9.6862915 3.6862915,7 7,7 L9,7 Z M9,9 L7,9 C4.85780461,9 3.10892112,10.6839685 3.00489531,12.8003597 L3,13 L13,13 C13,10.8578046 11.3160315,9.10892112 9.19964034,9.00489531 L9,9 Z M8,0 C9.65685425,0 11,1.34314575 11,3 C11,4.65685425 9.65685425,6 8,6 C6.34314575,6 5,4.65685425 5,3 C5,1.34314575 6.34314575,0 8,0 Z M8,2 C7.44771525,2 7,2.44771525 7,3 C7,3.55228475 7.44771525,4 8,4 C8.55228475,4 9,3.55228475 9,3 C9,2.44771525 8.55228475,2 8,2 Z"/></svg>