<svg xmlns="http://www.w3.org/2000/svg" width="8" height="10" viewBox="0 0 8 10"><path fill="#12BB4A" d="M4,0 C4.55228475,0 5,0.44771525 5,1 L5,6.584 L6.29289322,5.29289322 C6.65337718,4.93240926 7.22060824,4.90467972 7.61289944,5.20970461 L7.70710678,5.29289322 C8.09763107,5.68341751 8.09763107,6.31658249 7.70710678,6.70710678 L4.70710678,9.70710678 C4.31658249,10.0976311 3.68341751,10.0976311 3.29289322,9.70710678 L0.292893219,6.70710678 C-0.0976310729,6.31658249 -0.0976310729,5.68341751 0.292893219,5.29289322 C0.683417511,4.90236893 1.31658249,4.90236893 1.70710678,5.29289322 L3,6.586 L3,1 C3,0.44771525 3.44771525,0 4,0 Z"/></svg>
