<svg xmlns="http://www.w3.org/2000/svg" width="80" height="80" viewBox="0 0 80 80"><path fill="#F1C445" d="M40,0 C62.09139,0 80,17.90861 80,40 C80,62.09139 62.09139,80 40,80 C17.90861,80 0,62.09139 0,40 C0,17.90861 17.90861,0 40,0 Z M40,2 C19.0131795,2 2,19.0131795 2,40 C2,60.9868205 19.0131795,78 40,78 C60.9868205,78 78,60.9868205 78,40 C78,19.0131795 60.9868205,2 40,2 Z M57.5297885,28.411886 L57.6170094,28.4895924 C58.0075336,28.8801167 58.0075336,29.5132816 57.6170094,29.9038059 L36.4038059,51.1170094 C36.0132816,51.5075336 35.3801167,51.5075336 34.9895924,51.1170094 L24.3829906,40.5104076 C23.9924664,40.1198833 23.9924664,39.4867184 24.3829906,39.0961941 C24.7735149,38.7056698 25.4066799,38.7056698 25.7972042,39.0961941 L35.6966991,48.995689 L56.2027958,28.4895924 C56.5654255,28.1269627 57.1372709,28.1010605 57.5297885,28.411886 Z"/></svg>