<svg xmlns="http://www.w3.org/2000/svg" width="80" height="80" viewBox="0 0 80 80"><path fill-rule="evenodd" d="M51,27 C52.6568542,27 54,28.3431458 54,30 L54,54 L73,54 C74.6568542,54 76,55.3431458 76,57 L76,77.9991054 L79,78 C79.5522847,78 80,78.4477153 80,79 C80,79.5522847 79.5522847,80 79,80 L1,80 C0.44771525,80 3.38176876e-17,79.5522847 0,79 C-6.76353751e-17,78.4477153 0.44771525,78 1,78 L4,77.9991054 L4,45 C4,43.3431458 5.34314575,42 7,42 L26,42 L26,30 C26,28.3431458 27.3431458,27 29,27 L51,27 Z M54,56 L54,78 L74,77.9991054 L74,57 C74,56.4477153 73.5522847,56 73,56 L54,56 Z M52,78 L52,30 C52,29.4477153 51.5522847,29 51,29 L29,29 C28.4477153,29 28,29.4477153 28,30 L28,78 L52,78 Z M26,44 L7,44 C6.44771525,44 6,44.4477153 6,45 L6,77.9991054 L26,78 L26,44 Z M38.2065278,1.37442004 C38.6953724,0.38391272 39.8946241,-0.0227652777 40.8851314,0.466079309 C41.2795566,0.660739787 41.5988117,0.979994829 41.7934722,1.37442004 L43.8968844,5.63639876 L48.6002572,6.31983883 C49.6933469,6.47867407 50.4507098,7.49355977 50.2918746,8.5866495 C50.2286255,9.02192356 50.0236512,9.42420838 49.7086839,9.73122559 L46.3052914,13.0487134 L47.1087234,17.7330813 C47.2954454,18.8217542 46.5642698,19.855666 45.4755969,20.0423881 C45.0420816,20.1167417 44.5961455,20.0461124 44.2068245,19.8414343 L40,17.6297757 L35.7931755,19.8414343 C34.8154863,20.3554359 33.606232,19.9795428 33.0922304,19.0018537 C32.8875523,18.6125327 32.8169229,18.1665965 32.8912766,17.7330813 L33.6947086,13.0487134 L30.2913161,9.73122559 C29.5003489,8.96022317 29.4841643,7.69399664 30.2551667,6.90302948 C30.5621839,6.58806221 30.9644688,6.38308786 31.3997428,6.31983883 L36.1031156,5.63639876 L38.2065278,1.37442004 Z M40,2.26 L37.8965878,6.52153019 C37.6052637,7.11181713 37.0421326,7.52095588 36.3907122,7.61561279 L31.6873395,8.29905286 L35.090732,11.6165406 C35.5621041,12.076015 35.7772011,12.7380154 35.6659252,13.3868035 L34.8624933,18.0711714 L39.0693177,15.8595129 C39.6519658,15.5531967 40.3480342,15.5531967 40.9306823,15.8595129 L45.1375067,18.0711714 L44.3340748,13.3868035 C44.2227989,12.7380154 44.4378959,12.076015 44.909268,11.6165406 L48.3126605,8.29905286 L43.6092878,7.61561279 C42.9578674,7.52095588 42.3947363,7.11181713 42.1034122,6.52153019 L40,2.26 Z"/></svg>