<svg xmlns="http://www.w3.org/2000/svg" width="80" height="80" viewBox="0 0 80 80"><path fill="#28292B" d="M50,1 C50.5522847,1 51,1.44771525 51,2 L51,9 C51,9.55228475 50.5522847,10 50,10 L44,10 L44.0003399,12.2328524 C49.8318551,12.9163272 55.2122599,15.0755215 59.7580595,18.3269402 L61.7928932,16.2928932 C62.1834175,15.9023689 62.8165825,15.9023689 63.2071068,16.2928932 L66.2071068,19.2928932 C66.5976311,19.6834175 66.5976311,20.3165825 66.2071068,20.7071068 L64.4945839,22.4199668 C70.3806475,28.5328719 74,36.8437634 74,46 C74,64.7776815 58.7776815,80 40,80 C21.2223185,80 6,64.7776815 6,46 C6,36.9712723 9.51924882,28.7645093 15.2608321,22.6766252 L13.2928932,20.7071068 C12.9023689,20.3165825 12.9023689,19.6834175 13.2928932,19.2928932 L16.2928932,16.2928932 C16.6834175,15.9023689 17.3165825,15.9023689 17.7071068,16.2928932 L19.9519047,18.5366998 C24.558443,15.1682101 30.0442477,12.9306696 36.0006621,12.232735 L36,10 L30,10 C29.4477153,10 29,9.55228475 29,9 L29,2 C29,1.44771525 29.4477153,1 30,1 L50,1 Z M40,14 C22.326888,14 8,28.326888 8,46 C8,63.673112 22.326888,78 40,78 C57.673112,78 72,63.673112 72,46 C72,28.326888 57.673112,14 40,14 Z M40,17 C56.0162577,17 69,29.9837423 69,46 C69,62.0162577 56.0162577,75 40,75 C23.9837423,75 11,62.0162577 11,46 C11,29.9837423 23.9837423,17 40,17 Z M40,19 C25.0883118,19 13,31.0883118 13,46 C13,60.9116882 25.0883118,73 40,73 C54.9116882,73 67,60.9116882 67,46 C67,31.0883118 54.9116882,19 40,19 Z M40.5,58 C42.1568542,58 43.5,59.3431458 43.5,61 C43.5,62.6568542 42.1568542,64 40.5,64 C38.8431458,64 37.5,62.6568542 37.5,61 C37.5,59.3431458 38.8431458,58 40.5,58 Z M40.5,60 C39.9477153,60 39.5,60.4477153 39.5,61 C39.5,61.5522847 39.9477153,62 40.5,62 L40.6166211,61.9932723 C41.1139598,61.9355072 41.5,61.5128358 41.5,61 C41.5,60.4477153 41.0522847,60 40.5,60 Z M40.226573,27.1510307 L40.4933041,27.1526486 L40.5214158,27.1530168 C46.3094264,27.2695046 51.0974844,31.8122185 51.5456739,37.5514449 L51.5647067,37.8442854 C51.8394926,43.1398584 48.422913,47.7907091 43.519295,49.2574408 L43.289,49.3216872 L43.2900241,51.8893744 C43.2900241,53.3553193 42.2342218,54.5916268 40.8164477,54.8430478 L40.6373909,54.8692912 L40.5218313,54.8793269 L40.4052101,54.8860547 L40.2900241,54.8893744 C38.6331698,54.8893744 37.2900241,53.5462286 37.2900241,51.8893744 L37.2900241,46.730882 C37.2900241,45.0740277 38.6331698,43.730882 40.2900241,43.730882 C43.3188885,43.730882 45.7302744,41.1906095 45.5727748,38.155336 C45.4308047,35.4216395 43.1422268,33.2069775 40.4005335,33.1517989 C37.717066,33.0976557 35.4196322,35.0588032 35.0512287,37.6986052 C35.0171522,37.9430726 35,38.1908364 35,38.4406706 C35,40.0975249 33.6568542,41.4406706 32,41.4406706 C30.3431458,41.4406706 29,40.0975249 29,38.4406706 C29,37.9138233 29.036336,37.3892855 29.1087499,36.8697835 C29.869806,31.416421 34.4638953,27.3278185 39.9323956,27.1562916 L40.226573,27.1510307 Z M40.2144414,29.1509939 L39.9493267,29.1568706 C35.4567235,29.3199362 31.7114026,32.6903481 31.0895537,37.1462189 C31.0300605,37.5730271 31,38.0052961 31,38.4406706 C31,38.9929554 31.4477153,39.4406706 32,39.4406706 C32.5522847,39.4406706 33,38.9929554 33,38.4406706 C33,38.097786 33.0236448,37.7577736 33.0703799,37.4224928 C33.5770949,33.7916167 36.7317482,31.0773683 40.4408784,31.1522059 C44.2302913,31.2284705 47.3736854,34.2698846 47.5700832,38.051609 C47.7871795,42.2354092 44.4594695,45.730882 40.2900241,45.730882 C39.7377393,45.730882 39.2900241,46.1785972 39.2900241,46.730882 L39.2900241,51.8893744 C39.2900241,52.4416591 39.7377393,52.8893744 40.2900241,52.8893744 L40.4066452,52.8826466 C40.9039839,52.8248815 41.2900241,52.4022102 41.2900241,51.8893744 L41.29,47.6766802 L41.3548667,47.6705785 C46.1577358,47.1229096 49.8251579,42.91546 49.5673938,37.9479255 C49.3165752,33.1183042 45.318531,29.2499671 40.4811726,29.1526119 L40.2144414,29.1509939 Z M17,18.415 L15.415,20 L16.6766252,21.2608321 C17.2210718,20.7473556 17.7824651,20.2516532 18.3598773,19.7746525 L17,18.415 Z M62.5,18.415 L61.364711,19.549536 C61.9476003,20.0209393 62.514594,20.5112188 63.0647625,21.019445 L64.085,20 L62.5,18.415 Z M42,10 L38,10 L38.0003837,12.0578249 C38.6620238,12.0194526 39.3287402,12 40,12 C40.6715982,12 41.3386483,12.0194722 42.0006167,12.0578829 L42,10 Z M49,3 L31,3 L31,8 L49,8 L49,3 Z"/></svg>