<svg xmlns="http://www.w3.org/2000/svg" width="80" height="80" viewBox="0 0 80 80"><path fill="#28292B" d="M40,0 C48.2842712,0 55,6.71572875 55,15 L54.9990922,21 L75.0655011,21 C75.5915316,21 76.0276294,21.4075329 76.0632108,21.9323587 L79.9276175,78.9323587 C79.9649748,79.4833785 79.548569,79.9603524 78.9975492,79.9977097 C78.9750344,79.9992361 78.9524743,80 78.9299078,80 L1.07009217,80 C0.517807416,80 0.0700921656,79.5522847 0.0700921656,79 C0.0700921656,78.9774335 0.0700921656,78.9548735 0.0723824634,78.9323587 L3.93678924,21.9323587 C3.97237065,21.4075329 4.40846843,21 4.93449895,21 L24.9990922,21 L25,15 C25,6.71572875 31.7157288,0 40,0 Z M74.13,23 L54.9990922,23 L55,34 C55,34.5522847 54.5522847,35 54,35 C53.4477153,35 53,34.5522847 53,34 L52.9990922,23 L26.9990922,23 L27,34 C27,34.5522847 26.5522847,35 26,35 C25.4477153,35 25,34.5522847 25,34 L24.9990922,23 L5.869,23 L2.139,78 L77.86,78 L74.13,23 Z M40.0556579,49.4594031 L48.2098461,57.6135914 L56.3271375,49.4962999 L56.3271375,65.1080151 C53.4216725,66.9953792 50.1691276,68.3868256 46.6920752,69.1816697 C45.7202515,69.4036758 44.7340444,69.5875343 43.7290762,69.7126081 C43.0374179,69.7989091 42.3388806,69.8639475 41.6334642,69.902095 C41.1162839,69.9233575 40.599729,69.9458708 40.0744189,69.9464962 L40.0043776,69.9483723 C39.4484244,69.9483723 38.9031025,69.9233575 38.3571553,69.9014696 C32.9639718,69.6094222 27.9478859,67.8846541 23.6741132,65.1080151 L23.6741132,49.5350728 L31.7407497,57.6017093 L31.8270507,57.6880103 L40.0556579,49.4594031 Z M40.0551132,52.2874031 L31.8270507,60.5164374 L30.4128371,59.1022238 L30.3265362,59.0159229 L25.6741132,54.3624031 L25.6741132,63.9984031 C29.390365,66.2155099 33.5567746,67.5479446 37.894223,67.86831 L38.4372742,67.903075 C38.483355,67.9049274 38.483355,67.9049274 38.5292189,67.9067857 C38.5749753,67.9086446 38.5749753,67.9086446 38.6205185,67.9104995 C39.2429897,67.9358515 39.555284,67.9460575 39.880981,67.9480125 L39.9961186,67.947701 L40.0239777,67.9471987 L40.072038,67.9464976 C40.4468455,67.9460514 40.7620612,67.9363281 41.447625,67.9080558 C41.4573969,67.9076528 41.4573969,67.9076528 41.4671784,67.9072494 C41.5091541,67.905518 41.5091541,67.905518 41.525466,67.905013 C42.1639702,67.870484 42.8141804,67.8112549 43.4820708,67.7279197 C44.3694855,67.617476 45.2810654,67.4524822 46.246378,67.2319636 C49.0608438,66.5885848 51.7392596,65.5215445 54.1977257,64.0742419 L54.3271132,63.9954031 L54.3271132,54.3244031 L49.6240597,59.0278049 L48.2098461,60.4420185 L40.0551132,52.2874031 Z M56.3265122,44.7209811 C57.250754,44.7209811 58,45.4702272 58,46.394469 C58,47.3187108 57.250754,48.0679568 56.3265122,48.0679568 C55.4022704,48.0679568 54.6530244,47.3187108 54.6530244,46.394469 C54.6530244,45.4702272 55.4022704,44.7209811 56.3265122,44.7209811 Z M23.6734878,44.7209811 C24.5977834,44.7209811 25.3469756,45.4701734 25.3469756,46.394469 C25.3469756,47.3187645 24.5977834,48.0679568 23.6734878,48.0679568 C22.7491922,48.0679568 22,47.3187645 22,46.394469 C22,45.4701734 22.7491922,44.7209811 23.6734878,44.7209811 Z M40,42 C40.9242956,42 41.6734878,42.7491922 41.6734878,43.6734878 C41.6734878,44.5977834 40.9242956,45.3469756 40,45.3469756 C39.0757044,45.3469756 38.3265122,44.5977834 38.3265122,43.6734878 C38.3265122,42.7491922 39.0757044,42 40,42 Z M40,2 C32.8202983,2 27,7.82029825 27,15 L26.9990922,21 L52.9990922,21 L53,15 C53,7.82029825 47.1797017,2 40,2 Z"/></svg>