<svg xmlns="http://www.w3.org/2000/svg" xmlns:xlink="http://www.w3.org/1999/xlink" width="80" height="80" viewBox="0 0 80 80"><defs><linearGradient id="c" x1="0%" x2="99.998%" y1="49.998%" y2="49.998%"><stop offset="0%"/><stop offset="15%"/><stop offset="36%"/><stop offset="99%"/></linearGradient><rect id="a" width="25" height="14" x="0" y="0"/></defs><g fill="none" fill-rule="evenodd" transform="translate(0 -1.709)"><path fill="#000" fill-rule="nonzero" d="M16,21.7088171 C16.5522847,21.7088171 17,22.1565324 17,22.7088171 C17,23.2611019 16.5522847,23.7088171 16,23.7088171 L9,23.7088171 C4.16666667,23.7088171 2,25.3338171 2,28.7088171 C2,32.0838171 4.16666667,33.7088171 9,33.7088171 L65,33.7088171 L65,28.7088171 C65,26.0200624 62.8776933,23.826999 60.2168896,23.7134366 L60,23.7088171 L50.5,23.7088171 C49.9477153,23.7088171 49.5,23.2611019 49.5,22.7088171 C49.5,22.1565324 49.9477153,21.7088171 50.5,21.7088171 L60,21.7088171 C63.8659932,21.7088171 67,24.8428239 67,28.7088171 L67,33.7798171 L67.1815802,33.8081206 C70.4080837,34.3566183 72.8825925,37.1130225 72.995941,40.4681674 L73,40.7088171 L73,48.7078171 L74,48.7088171 C77.3137085,48.7088171 80,51.3951086 80,54.7088171 L80,60.7088171 C80,64.0225256 77.3137085,66.7088171 74,66.7088171 L73,66.7078171 L73,74.7088171 C73,78.5748104 69.8659932,81.7088171 66,81.7088171 L7,81.7088171 C3.13400675,81.7088171 0,78.5748104 0,74.7088171 L0,28.7088171 L0.00325471219,28.4541883 C0.118198445,23.9966686 3.27469136,21.7088171 9,21.7088171 L16,21.7088171 Z M2,33.6848171 L2,74.7088171 C2,77.3975718 4.12230671,79.5906352 6.78311038,79.7041976 L7,79.7088171 L66,79.7088171 C68.7614237,79.7088171 71,77.4702409 71,74.7088171 L71,66.7078171 L58,66.7088171 C53.0294373,66.7088171 49,62.6793799 49,57.7088171 C49,52.7382544 53.0294373,48.7088171 58,48.7088171 L71,48.7078171 L71,40.7088171 C71,37.9473934 68.7614237,35.7088171 66,35.7088171 L9,35.7088171 C5.97530864,35.7088171 3.66758116,35.0702712 2.14652238,33.8106055 L2,33.6848171 Z M74,50.7088171 L58,50.7088171 C54.1340068,50.7088171 51,53.8428239 51,57.7088171 C51,61.5748104 54.1340068,64.7088171 58,64.7088171 L74,64.7088171 C76.209139,64.7088171 78,62.9179561 78,60.7088171 L78,54.7088171 C78,52.4996781 76.209139,50.7088171 74,50.7088171 Z M59,54.7088171 C60.6568542,54.7088171 62,56.0519629 62,57.7088171 C62,59.3656714 60.6568542,60.7088171 59,60.7088171 C57.3431458,60.7088171 56,59.3656714 56,57.7088171 C56,56.0519629 57.3431458,54.7088171 59,54.7088171 Z M38,21.7088171 L38,23.7088171 L28,23.7088171 L28,21.7088171 L38,21.7088171 Z"/><path fill="#000" fill-rule="nonzero" d="M11,5.04065789e-18 C17.0751322,5.04065789e-18 22,4.92486775 22,11 C22,17.0751322 17.0751322,22 11,22 C4.92486775,22 -2.11745681e-13,17.0751322 -2.11745681e-13,11 C-2.11745681e-13,4.92486775 4.92486775,5.04065789e-18 11,5.04065789e-18 Z M11,2 C6.02943725,2 2,6.02943725 2,11 C2,15.9705627 6.02943725,20 11,20 C15.9705627,20 20,15.9705627 20,11 C20,6.02943725 15.9705627,2 11,2 Z M11.0187611,8.98667616 L13.7366154,11.7045305 L16.4423792,8.99876663 L16.4423792,14.2026717 C15.4738908,14.8317931 14.3897092,15.2956085 13.2306917,15.5605566 C12.9067505,15.6345586 12.5780148,15.6958448 12.2430254,15.737536 C12.0124726,15.766303 11.7796269,15.7879825 11.5444881,15.8006983 C11.3720946,15.8077858 11.1999097,15.8152903 11.0248063,15.8154987 C11.016885,15.8154987 11.0093805,15.8161241 11.0014592,15.8161241 C10.8161415,15.8161241 10.6343675,15.8077858 10.4523851,15.8004899 C8.65465726,15.7031407 6.98262863,15.128218 5.55803773,14.2026717 L5.55803773,9.01169093 L8.24691658,11.7005698 L8.27568356,11.7293368 L11.0187611,8.98667616 Z M16.4421707,7.40699371 C16.7502513,7.40699371 17,7.65674238 17,7.96482299 C17,8.27290359 16.7502513,8.52265226 16.4421707,8.52265226 C16.1340901,8.52265226 15.8843415,8.27290359 15.8843415,7.96482299 C15.8843415,7.65674238 16.1340901,7.40699371 16.4421707,7.40699371 Z M5.55782927,7.40699371 C5.8659278,7.40699371 6.11565855,7.65672446 6.11565855,7.96482299 C6.11565855,8.27292152 5.8659278,8.52265226 5.55782927,8.52265226 C5.24973074,8.52265226 5,8.27292152 5,7.96482299 C5,7.65672446 5.24973074,7.40699371 5.55782927,7.40699371 Z M11,6.5 C11.3080985,6.5 11.5578293,6.74973074 11.5578293,7.05782927 C11.5578293,7.3659278 11.3080985,7.61565855 11,7.61565855 C10.6919015,7.61565855 10.4421707,7.3659278 10.4421707,7.05782927 C10.4421707,6.74973074 10.6919015,6.5 11,6.5 Z" transform="rotate(-26 24.532 -10.969)"/><g transform="translate(32 19.709)"><mask id="b" fill="#fff"><use xlink:href="#a"/></mask><use xlink:href="#a" fill="#FFF" fill-opacity="0"/><g mask="url(#b)"><path fill="url(#c)" fill-rule="nonzero" d="M11,4.91818579e-16 C17.0751322,4.91818579e-16 22,4.92486775 22,11 C22,17.0751322 17.0751322,22 11,22 C4.92486775,22 -1.5358147e-13,17.0751322 -1.5358147e-13,11 C-1.5358147e-13,4.92486775 4.92486775,4.91818579e-16 11,4.91818579e-16 Z M11,2 C6.02943725,2 2,6.02943725 2,11 C2,15.9705627 6.02943725,20 11,20 C15.9705627,20 20,15.9705627 20,11 C20,6.02943725 15.9705627,2 11,2 Z M11.0187611,8.98667616 L13.7366154,11.7045305 L16.4423792,8.99876663 L16.4423792,14.2026717 C15.4738908,14.8317931 14.3897092,15.2956085 13.2306917,15.5605566 C12.9067505,15.6345586 12.5780148,15.6958448 12.2430254,15.737536 C12.0124726,15.766303 11.7796269,15.7879825 11.5444881,15.8006983 C11.3720946,15.8077858 11.1999097,15.8152903 11.0248063,15.8154987 C11.016885,15.8154987 11.0093805,15.8161241 11.0014592,15.8161241 C10.8161415,15.8161241 10.6343675,15.8077858 10.4523851,15.8004899 C8.65465726,15.7031407 6.98262863,15.128218 5.55803773,14.2026717 L5.55803773,9.01169093 L8.24691658,11.7005698 L8.27568356,11.7293368 L11.0187611,8.98667616 Z M16.4421707,7.40699371 C16.7502513,7.40699371 17,7.65674238 17,7.96482299 C17,8.27290359 16.7502513,8.52265226 16.4421707,8.52265226 C16.1340901,8.52265226 15.8843415,8.27290359 15.8843415,7.96482299 C15.8843415,7.65674238 16.1340901,7.40699371 16.4421707,7.40699371 Z M5.55782927,7.40699371 C5.8659278,7.40699371 6.11565855,7.65672446 6.11565855,7.96482299 C6.11565855,8.27292152 5.8659278,8.52265226 5.55782927,8.52265226 C5.24973074,8.52265226 5,8.27292152 5,7.96482299 C5,7.65672446 5.24973074,7.40699371 5.55782927,7.40699371 Z M11,6.5 C11.3080985,6.5 11.5578293,6.74973074 11.5578293,7.05782927 C11.5578293,7.3659278 11.3080985,7.61565855 11,7.61565855 C10.6919015,7.61565855 10.4421707,7.3659278 10.4421707,7.05782927 C10.4421707,6.74973074 10.6919015,6.5 11,6.5 Z" transform="rotate(23 11.5 13.458)"/></g></g></g></svg>