<svg xmlns="http://www.w3.org/2000/svg" width="131" height="153" viewBox="0 0 131 153"><g fill="none" fill-rule="evenodd"><rect width="131" height="153"/><g fill="#FFF" fill-rule="nonzero" transform="translate(10 1)"><path d="M54.6926645,48.7771413 C54.7248074,48.7771413 54.7551645,48.7741413 54.7873074,48.7741413 C54.7542717,48.7741413 54.721236,48.7771413 54.6873074,48.7771413 C54.6890931,48.7771413 54.6908788,48.7771413 54.6926645,48.7771413 L54.6926645,48.7771413 Z"/><path d="M96.1490683,0 L14.8058414,0 C6.66255749,0 0,6.67607036 0,14.8364231 L0,96.3446494 C0,104.505002 6.66255749,111.181072 14.8058414,111.181072 L96.1490683,111.181072 C104.292352,111.181072 110.95491,104.505002 110.95491,96.3446494 L110.95491,14.8364231 C110.95491,6.67678157 104.292352,0 96.1490683,0 Z M74.0448533,23.510265 C75.0960125,23.510265 75.9480347,24.3622872 75.9480347,25.4134465 C75.9480347,26.4646058 75.0960125,27.3166279 74.0448533,27.3166279 C72.993694,27.3166279 72.1416718,26.4646058 72.1416718,25.4134465 C72.1416718,24.3622872 72.993694,23.510265 74.0448533,23.510265 Z M55.4774548,20.4165284 C56.5286141,20.4165284 57.3806363,21.2685506 57.3806363,22.3197098 C57.3806363,23.3708691 56.5286141,24.2228913 55.4774548,24.2228913 C54.4262956,24.2228913 53.5742734,23.3708691 53.5742734,22.3197098 C53.5742734,21.2685506 54.4262956,20.4165284 55.4774548,20.4165284 Z M46.1834432,38.2570765 L50.1512493,34.2892703 L55.5414632,28.8990565 L64.8141387,38.171732 L74.0455645,28.9403063 L74.0455645,46.6947987 C70.7413115,48.8412119 67.0430515,50.4229292 63.088047,51.3275805 C61.9828363,51.5800578 60.8612678,51.7891518 59.7183633,51.9313925 C58.9317718,52.0295387 58.1373572,52.1035039 57.3351192,52.1468873 C56.7469537,52.170357 56.1594993,52.1959604 55.5620881,52.1973828 C55.5357736,52.1973828 55.509459,52.1995164 55.4824333,52.1995164 C54.8508843,52.1995164 54.2307145,52.1717794 53.6091224,52.1461761 C47.4757005,51.8140439 41.7711346,49.8525437 36.9107676,46.6947987 L36.9107676,28.9844009 L46.0845858,38.1582191 L46.182732,38.2563653 L46.1834432,38.2570765 Z M36.9107676,23.510265 C37.9619269,23.510265 38.8139491,24.3622872 38.8139491,25.4134465 C38.8139491,26.4646058 37.9619269,27.3166279 36.9107676,27.3166279 C35.8596084,27.3166279 35.0075862,26.4646058 35.0075862,25.4134465 C35.0075862,24.3622872 35.8596084,23.510265 36.9107676,23.510265 Z M79.0055,90.7645441 C79.0055,77.7907638 68.4512351,67.2372102 55.478166,67.2372102 C42.505097,67.2372102 31.9508321,77.791475 31.9508321,90.7645441 L21.2934427,90.7645441 C21.2934427,71.9147978 36.6284197,56.5798208 55.478166,56.5798208 C74.3279124,56.5798208 89.6628894,71.915509 89.6628894,90.7645441 L79.0055,90.7645441 L79.0055,90.7645441 Z"/></g><g fill="#FFF" transform="translate(10 123.75)"><g transform="translate(0 .008)"><polygon points="0 28.397 0 0 8.686 0 8.686 10.6 20.412 0 32.283 0 15.983 14.028 33.884 28.397 21.326 28.397 8.686 17.498 8.686 28.397"/><path d="M52.6696221,0 C59.3478261,0 63.489166,0.14295197 65.0936418,0.428144706 C67.4050543,0.849888578 69.0920298,1.69906595 70.1531459,2.97638803 C71.1730122,4.18614575 71.8194965,5.81693613 72.0911763,7.86875919 C72.254042,9.03726708 72.3358304,11.2939168 72.3358304,14.637286 C72.3358304,18.7686691 71.9823621,21.6362429 71.2747143,23.2400076 C70.5812906,24.8025224 69.5955621,25.9376037 68.3168176,26.6438291 C67.2834384,27.2284387 66.2088094,27.6331137 65.0936418,27.8571429 C63.9784742,28.0811721 62.3327486,28.2276801 60.1564648,28.2959556 C58.1985207,28.36352 55.886397,28.3976578 53.2200939,28.3976578 C47.0461334,28.3976578 43.1558485,28.248305 41.5513726,27.9488882 C39.3750889,27.5406572 37.7706131,26.800294 36.7365227,25.7270874 C35.7166564,24.6531696 35.0161206,23.1311934 34.6349154,21.1611588 C34.4044853,19.9521123 34.2885591,17.5738467 34.2885591,14.0256508 C34.2885591,11.6751221 34.3226969,10.0343749 34.3909725,9.10269783 C34.459248,8.17173202 34.6221137,7.24432222 34.8809919,6.32046845 C35.383813,4.4179982 36.3354037,2.98350007 37.7364753,2.01910768 C39.2328481,0.999952586 41.7483761,0.374804419 45.2844815,0.143663174 C46.7808544,0.0483618605 49.2423309,0.000711203831 52.6696221,0.000711203831 L52.6696221,0 Z M53.3758475,6.80693187 C49.9087288,6.80693187 47.637855,6.88872031 46.563226,7.05158598 C44.9452373,7.2955289 43.9189702,7.90574179 43.4830022,8.88151344 C43.0889953,9.72215637 42.8919918,11.4432696 42.8919918,14.0462757 C42.8919918,16.8256602 43.0818833,18.6221611 43.4623773,19.4350671 C43.9516856,20.4926272 45.0604523,21.1426675 46.7872552,21.3866104 C47.7665829,21.5224503 49.8881039,21.5900147 53.1503959,21.5900147 C57.243374,21.5900147 59.7930397,21.4676876 60.7986819,21.2237447 C61.9543881,20.9250391 62.7431132,20.3966147 63.164857,19.6377602 C63.5183254,19.0140344 63.7423546,18.0652885 63.8376559,16.7908112 C63.8789057,16.1948224 63.8988194,15.2254516 63.8988194,13.88341 C63.8988194,11.2263525 63.708928,9.504528 63.3284339,8.71793656 C63.0830686,8.21653786 62.7637381,7.85737993 62.3697312,7.64046276 C61.6350576,7.24716704 60.7040918,7.016737 59.5754113,6.94917263 C58.0256982,6.85387132 55.9589398,6.80622066 53.3758475,6.80622066 L53.3758475,6.80693187 Z"/><path fill-rule="nonzero" d="M76.8519748,28.3969466 L76.8519748,14.5412735 L98.0159784,14.5412735 C99.3864682,14.5412735 100.368641,14.4310369 100.962496,14.2084301 C101.586222,13.9730217 102.042814,13.4950927 102.332986,12.7746432 C102.485183,12.3863259 102.561282,11.7142383 102.561282,10.7583804 C102.561282,9.13683562 102.159452,8.06362904 101.357214,7.536627 C100.914845,7.2592575 100.367929,7.08643497 99.7171779,7.0174482 C99.4547437,6.98971125 98.8879143,6.97548717 98.0152672,6.97548717 L76.8512636,6.97548717 L76.8512636,0.0476506567 L98.5963207,0.0476506567 C100.824522,0.0476506567 102.352899,0.0817884406 103.182874,0.150775212 C105.272391,0.331420985 106.870466,0.788013845 107.977099,1.5219762 C109.553838,2.60229482 110.516097,4.20179223 110.862453,6.32117965 C111.055901,7.51244607 111.152624,8.89004789 111.152624,10.4561187 C111.152624,13.5306529 110.834005,15.7951259 110.198189,17.2495377 C109.381727,19.0915556 108.073823,20.2828221 106.275188,20.8226258 C104.94666,21.2237447 102.635958,21.4250154 99.3437959,21.4250154 L85.4795885,21.4250154 L85.4795885,28.3955242 L76.8512636,28.3955242 L76.8519748,28.3969466 Z"/></g><g fill-rule="nonzero" transform="translate(112.665)"><path d="M3.66767816,7.33535631 C1.64572566,7.33535631 0,5.69034185 0,3.66767816 C0,1.64501446 1.64572566,0 3.66767816,0 C5.68963065,0 7.33535631,1.64501446 7.33535631,3.66767816 C7.33535631,5.69034185 5.69034185,7.33535631 3.66767816,7.33535631 Z M3.66767816,0.485041013 C1.9124271,0.485041013 0.484329809,1.91313831 0.484329809,3.66767816 C0.484329809,5.42221801 1.9124271,6.8503153 3.66767816,6.8503153 C5.42292921,6.8503153 6.8503153,5.42221801 6.8503153,3.66767816 C6.8503153,1.91313831 5.42221801,0.485041013 3.66767816,0.485041013 Z"/><path d="M1.06921057,1.73272069 L0.385715216,1.73272069 L0.385715216,2.90985158 L0,2.90985158 L0,0 L0.963288779,0 C1.29104679,0 1.54319395,0.074611579 1.71973028,0.223834737 C1.8962666,0.373057895 1.98453477,0.590230884 1.98453477,0.875353704 C1.98453477,1.05655325 1.93557092,1.21443668 1.83764322,1.349004 C1.73971552,1.48357131 1.60348277,1.5841637 1.42894497,1.65078119 L2.11244033,2.88586929 L2.11244033,2.90985158 L1.7007443,2.90985158 L1.06921057,1.73272069 Z M0.385715216,1.41895235 L0.975279925,1.41895235 C1.16580592,1.41895235 1.31736069,1.36965541 1.42994423,1.27106154 C1.54252778,1.17246767 1.59881955,1.04056506 1.59881955,0.875353704 C1.59881955,0.695486504 1.54519248,0.557588318 1.43793833,0.461659145 C1.33068419,0.365729972 1.17579854,0.317099211 0.973281401,0.315766861 L0.385715216,0.315766861 L0.385715216,1.41895235 Z" transform="translate(2.696 2.1)"/></g></g></g></svg>