<svg xmlns="http://www.w3.org/2000/svg" width="24" height="24" viewBox="0 0 24 24"><path fill="#28292B" fill-rule="evenodd" d="M12.0371052,4.97293541 L8.87732342,8.13271723 L6.55136713,10.4586735 L6.49383317,10.4011396 L1.11607546,5.02338186 L1.11607546,15.4053434 C3.96525727,17.2564361 7.30931453,18.4062815 10.9047702,18.6009797 C11.268735,18.6155717 11.6322829,18.6322482 12.0029184,18.6322482 C12.0187611,18.6322482 12.0337699,18.6309975 12.0496126,18.6309975 C12.3998193,18.6305806 12.7441893,18.6155717 13.0889761,18.6013967 C13.5592537,18.575965 14.0249453,18.5326061 14.4860508,18.4750721 C15.1560296,18.3916895 15.813501,18.2691172 16.4613835,18.1211132 C18.7794184,17.591217 20.9477817,16.6635861 22.8847584,15.4053434 L22.8847584,4.99753327 L17.4732307,10.4090609 L12.0375221,4.97335233 L12.0371052,4.97293541 Z M12,2.2313171 C12.6161971,2.2313171 13.1156585,1.73185561 13.1156585,1.11565855 C13.1156585,0.499461488 12.6161971,7.10542736e-15 12,7.10542736e-15 C11.3838029,7.10542736e-15 10.8843415,0.499461488 10.8843415,1.11565855 C10.8843415,1.73185561 11.3838029,2.2313171 12,2.2313171 Z M22.8843415,4.04530452 C23.5005027,4.04530452 24,3.54580717 24,2.92964597 C24,2.31348477 23.5005027,1.81398742 22.8843415,1.81398742 C22.2681802,1.81398742 21.7686829,2.31348477 21.7686829,2.92964597 C21.7686829,3.54580717 22.2681802,4.04530452 22.8843415,4.04530452 Z M2.2313171,2.92964597 C2.2313171,2.31344891 1.73185561,1.81398742 1.11565855,1.81398742 C0.499461488,1.81398742 0,2.31344891 0,2.92964597 C0,3.54584303 0.499461488,4.04530452 1.11565855,4.04530452 C1.73185561,4.04530452 2.2313171,3.54584303 2.2313171,2.92964597 Z" transform="translate(0 3)"/></svg>