<svg xmlns="http://www.w3.org/2000/svg" width="24" height="24" viewBox="0 0 24 24"><g fill="#9A9A9A"><path d="M12,0 C18.627417,0 24,5.372583 24,12 C24,18.627417 18.627417,24 12,24 C5.372583,24 0,18.627417 0,12 C0,5.372583 5.372583,0 12,0 Z M12,1 C5.92486775,1 1,5.92486775 1,12 C1,18.0751322 5.92486775,23 12,23 C18.0751322,23 23,18.0751322 23,12 C23,5.92486775 18.0751322,1 12,1 Z"/><path d="M11.254,12.912 L11.212,11.722 L12.248,11.652 C12.7333333,11.624 13.1323333,11.484 13.445,11.232 C13.7576667,10.98 13.914,10.6113333 13.914,10.126 C13.914,9.71533333 13.7693333,9.37466667 13.48,9.104 C13.1906667,8.83333333 12.8126667,8.698 12.346,8.698 C12.0193333,8.698 11.737,8.77966667 11.499,8.943 C11.261,9.10633333 11.0953333,9.30933333 11.002,9.552 L9.322,9.076 C9.50866667,8.46 9.86566667,7.96533333 10.393,7.592 C10.9203333,7.21866667 11.5713333,7.032 12.346,7.032 C12.9993333,7.032 13.578,7.165 14.082,7.431 C14.586,7.697 14.9803333,8.061 15.265,8.523 C15.5496667,8.985 15.692,9.51933333 15.692,10.126 C15.692,10.686 15.5566667,11.176 15.286,11.596 C15.0153333,12.016 14.6373333,12.3403333 14.152,12.569 C13.6666667,12.7976667 13.102,12.912 12.458,12.912 L11.254,12.912 Z M12.164,17.21 C11.856,17.21 11.5923333,17.1003333 11.373,16.881 C11.1536667,16.6616667 11.044,16.3933333 11.044,16.076 C11.044,15.768 11.1536667,15.5043333 11.373,15.285 C11.5923333,15.0656667 11.856,14.956 12.164,14.956 C12.472,14.956 12.7356667,15.0656667 12.955,15.285 C13.1743333,15.5043333 13.284,15.768 13.284,16.076 C13.284,16.3933333 13.1743333,16.6616667 12.955,16.881 C12.7356667,17.1003333 12.472,17.21 12.164,17.21 Z M11.282,14.186 L11.24,12.1 L13.088,12.1 L13.046,14.186 L11.282,14.186 Z"/></g></svg>