<svg xmlns="http://www.w3.org/2000/svg" width="25" height="10" viewBox="0 0 25 10"><g fill="#28292B" transform="translate(.084 .672)"><polygon points="5.292 8.328 8.544 8.328 13.836 .144 10.92 .144 6.948 6.336 2.964 .144 0 .144"/><path d="M24.876,6 C24.876,4.308 23.82,3.492 21.468,3.36 L17.004,3.096 C16.26,3.048 15.948,2.976 15.948,2.52 C15.948,2.028 16.272,1.908 18.48,1.908 C20.532,1.908 22.692,2.136 24.084,2.412 L24.48,0.576 C22.86,0.228 20.496,0 19.044,0 C15.252,0 13.644,0.744 13.644,2.58 C13.644,4.104 14.568,4.92 17.112,5.04 L21.636,5.304 C22.272,5.364 22.572,5.424 22.572,5.928 C22.572,6.42 22.224,6.576 20.304,6.576 C17.844,6.576 15.804,6.252 14.124,5.88 L13.776,7.836 C15.252,8.196 17.616,8.484 19.656,8.484 C23.7,8.484 24.876,7.728 24.876,6 Z"/></g></svg>