<svg xmlns="http://www.w3.org/2000/svg" xmlns:xlink="http://www.w3.org/1999/xlink" width="300" height="490" viewBox="0 0 300 490"><defs><linearGradient id="c" x1="56.379%" x2="31.258%" y1="67.018%" y2="0%"><stop offset="0%" stop-color="#F1C445"/><stop offset="100%" stop-color="#FFF"/></linearGradient><linearGradient id="d" x1="67.018%" x2="0%" y1="55.942%" y2="32.541%"><stop offset="0%" stop-color="#F1C445"/><stop offset="100%" stop-color="#FFF"/></linearGradient><linearGradient id="g" x1="100%" x2="45.817%" y1="48%" y2="50.397%"><stop offset="0%" stop-color="#FFF"/><stop offset="100%" stop-color="#F1C445"/></linearGradient><filter id="b" width="110%" height="106.1%" x="-5%" y="-3.1%" filterUnits="objectBoundingBox"><feOffset in="SourceAlpha" result="shadowOffsetOuter1"/><feGaussianBlur in="shadowOffsetOuter1" result="shadowBlurOuter1" stdDeviation="5"/><feComposite in="shadowBlurOuter1" in2="SourceAlpha" operator="out" result="shadowBlurOuter1"/><feColorMatrix in="shadowBlurOuter1" values="0 0 0 0 0.945098039 0 0 0 0 0.768627451 0 0 0 0 0.270588235 0 0 0 0.298623252 0"/></filter><filter id="f" width="113.6%" height="168.2%" x="-6.8%" y="-34.1%" filterUnits="objectBoundingBox"><feOffset in="SourceAlpha" result="shadowOffsetOuter1"/><feGaussianBlur in="shadowOffsetOuter1" result="shadowBlurOuter1" stdDeviation="5"/><feComposite in="shadowBlurOuter1" in2="SourceAlpha" operator="out" result="shadowBlurOuter1"/><feColorMatrix in="shadowBlurOuter1" values="0 0 0 0 0.945098039 0 0 0 0 0.768627451 0 0 0 0 0.270588235 0 0 0 0.461838942 0"/></filter><filter id="i" width="111.7%" height="163.6%" x="-5.8%" y="-22.7%" filterUnits="objectBoundingBox"><feOffset dy="5" in="SourceAlpha" result="shadowOffsetOuter1"/><feGaussianBlur in="shadowOffsetOuter1" result="shadowBlurOuter1" stdDeviation="5"/><feColorMatrix in="shadowBlurOuter1" values="0 0 0 0 0.945098039 0 0 0 0 0.768627451 0 0 0 0 0.270588235 0 0 0 0.400677448 0"/></filter><path id="e" d="M43,35 L263,35 C263,59.300529 243.300529,79 219,79 L87,79 C62.699471,79 43,59.300529 43,35 L43,35 L43,35 Z"/><path id="h" d="M0,10 C53,3.33333333 103,0 150,0 C197,0 247,3.33333333 300,10 L300,55 C247,48.3333333 197,45 150,45 C103,45 53,48.3333333 0,55 L0,10 Z"/><rect id="a" width="300" height="490" x="0" y="0" rx="20"/></defs><g fill="none" fill-rule="evenodd"><use xlink:href="#a" fill="#000" filter="url(#b)"/><rect width="298" height="488" x="1" y="1" fill="#28292B" stroke="url(#c)" stroke-linejoin="square" stroke-width="2" rx="20"/><rect width="284" height="474" x="8" y="8" fill="#28292B" stroke="#F1C445" stroke-width="2" rx="16"/><path fill="url(#d)" d="M14,0 L272,1.77635684e-15 C279.731986,3.56013962e-16 286,6.2680135 286,14 L286,169 L286,169 L0,169 L0,14 C-9.46895251e-16,6.2680135 6.2680135,9.46895251e-16 14,0 Z" transform="translate(7 7)"/><g transform="translate(0 146)"><use xlink:href="#e" fill="#000" filter="url(#f)"/><path fill="url(#g)" stroke="#FFF" stroke-linejoin="square" stroke-opacity=".253" d="M262.497186,35.5 C262.364131,47.3137908 257.52173,57.9965599 249.759145,65.759145 C241.887193,73.6310967 231.012193,78.5 219,78.5 L87,78.5 C74.9878067,78.5 64.1128067,73.6310967 56.240855,65.759145 C48.47827,57.9965599 43.635869,47.3137908 43.5028144,35.5 Z"/><use xlink:href="#h" fill="#000" filter="url(#i)"/><use xlink:href="#h" fill="#FFF"/></g><g transform="translate(243 7)"><path fill="#28292B" stroke="#F1C445" stroke-width="2" d="M48.9999106,1 C49.0187775,13.7169852 44.8585523,24.0510712 36.4806022,31.9849633 C28.0280599,39.9894941 16.1925536,45.2530874 1,47.822928 L1,13 C1,9.6862915 2.34314575,6.6862915 4.51471863,4.51471863 C6.6862915,2.34314575 9.6862915,1 13,1 Z" transform="matrix(-1 0 0 1 50 0)"/><path fill="#F1C445" fill-rule="nonzero" d="M13,18 C13.5522847,18 14,18.4477153 14,19 L14,23 C14,23.743382 13.2176875,24.2268777 12.5527864,23.8944272 L9,22.118 L5.4472136,23.8944272 C4.8173073,24.2093803 4.08202345,23.7920161 4.00637004,23.1151353 L4,23 L4,19 C4,18.4477153 4.44771525,18 5,18 C5.55228475,18 6,18.4477153 6,19 L6,21.381 L8.5527864,20.1055728 C8.79409568,19.9849182 9.07202557,19.9676818 9.32379788,20.0538637 L9.4472136,20.1055728 L12,21.382 L12,19 C12,18.4871642 12.3860402,18.0644928 12.8833789,18.0067277 L13,18 Z M9,0 C13.9705627,0 18,4.02943725 18,9 C18,13.9705627 13.9705627,18 9,18 C4.02943725,18 0,13.9705627 0,9 C0,4.02943725 4.02943725,0 9,0 Z M9,2 C5.13400675,2 2,5.13400675 2,9 C2,12.8659932 5.13400675,16 9,16 C12.8659932,16 16,12.8659932 16,9 C16,5.13400675 12.8659932,2 9,2 Z M9,5 L10.1755705,7.38196601 L12.8042261,7.76393202 L10.902113,9.61803399 L11.351141,12.236068 L9,11 L6.64885899,12.236068 L7.09788697,9.61803399 L5.19577393,7.76393202 L7.8244295,7.38196601 L9,5 Z" transform="translate(20 7)"/></g><g transform="matrix(-1 0 0 1 57 7)"><path fill="#28292B" stroke="#FFF" stroke-width="2" d="M48.9999106,1 C49.0187775,13.7169852 44.8585523,24.0510712 36.4806022,31.9849633 C28.0280599,39.9894941 16.1925536,45.2530874 1,47.822928 L1,13 C1,9.6862915 2.34314575,6.6862915 4.51471863,4.51471863 C6.6862915,2.34314575 9.6862915,1 13,1 Z" transform="matrix(-1 0 0 1 50 0)"/><path fill="#F1C445" fill-rule="nonzero" d="M13,18 C13.5522847,18 14,18.4477153 14,19 L14,23 C14,23.743382 13.2176875,24.2268777 12.5527864,23.8944272 L9,22.118 L5.4472136,23.8944272 C4.8173073,24.2093803 4.08202345,23.7920161 4.00637004,23.1151353 L4,23 L4,19 C4,18.4477153 4.44771525,18 5,18 C5.55228475,18 6,18.4477153 6,19 L6,21.381 L8.5527864,20.1055728 C8.79409568,19.9849182 9.07202557,19.9676818 9.32379788,20.0538637 L9.4472136,20.1055728 L12,21.382 L12,19 C12,18.4871642 12.3860402,18.0644928 12.8833789,18.0067277 L13,18 Z M9,0 C13.9705627,0 18,4.02943725 18,9 C18,13.9705627 13.9705627,18 9,18 C4.02943725,18 0,13.9705627 0,9 C0,4.02943725 4.02943725,0 9,0 Z M9,2 C5.13400675,2 2,5.13400675 2,9 C2,12.8659932 5.13400675,16 9,16 C12.8659932,16 16,12.8659932 16,9 C16,5.13400675 12.8659932,2 9,2 Z M9,5 L10.1755705,7.38196601 L12.8042261,7.76393202 L10.902113,9.61803399 L11.351141,12.236068 L9,11 L6.64885899,12.236068 L7.09788697,9.61803399 L5.19577393,7.76393202 L7.8244295,7.38196601 L9,5 Z" transform="translate(22 7)"/></g></g></svg>